<?xml version="1.0" encoding="UTF-8"?>
<svg width="916px" height="25px" version="1.1" xmlns="http://www.w3.org/2000/svg" xmlns:xlink="http://www.w3.org/1999/xlink">
    <title>Group 24@2x</title>
    <g id="Nominations" stroke="none" stroke-width="1" fill="none" fill-rule="evenodd">
        <g id="Group-24">
            <polygon id="Fill-1" fill="#ED2027" points="0 0 103.675884 0 103.675884 25 0 25"></polygon>
            <polygon id="Fill-2" fill="#FFFFFF" points="103.675884 0 116.046302 0 116.046302 25 103.675884 25"></polygon>
            <polygon id="Fill-3" fill="#000000" points="115.457235 0 127.827653 0 127.827653 25 115.457235 25"></polygon>
            <polygon id="Fill-4" fill="#FFFFFF" points="129.594855 0 137.841801 0 137.841801 25 129.594855 25"></polygon>
            <polygon id="Fill-5" fill="#000000" points="137.841801 0 150.212219 0 150.212219 25 137.841801 25"></polygon>
            <polygon id="Fill-6" fill="#FFFFFF" points="151.979421 0 160.226367 0 160.226367 25 151.979421 25"></polygon>
            <polygon id="Fill-7" fill="#000000" points="160.226367 0 172.596785 0 172.596785 25 160.226367 25"></polygon>
            <polygon id="Fill-8" fill="#FFFFFF" points="174.363987 0 182.610932 0 182.610932 25 174.363987 25"></polygon>
            <polygon id="Fill-9" fill="#000000" points="183.2 0 195.570418 0 195.570418 25 183.2 25"></polygon>
            <polygon id="Fill-10" fill="#FFFFFF" points="196.748553 0 204.995498 0 204.995498 25 196.748553 25"></polygon>
            <polygon id="Fill-11" fill="#000000" points="206.762701 0 219.133119 0 219.133119 25 206.762701 25"></polygon>
            <polygon id="Fill-12" fill="#FFFFFF" points="218.544051 0 230.914469 0 230.914469 25 218.544051 25"></polygon>
            <polygon id="Fill-13" fill="#E7EAEB" points="230.914469 0 336.357556 0 336.357556 25 230.914469 25"></polygon>
            <polygon id="Fill-14" fill="#FFFFFF" points="334.590354 0 346.960772 0 346.960772 25 334.590354 25"></polygon>
            <polygon id="Fill-15" fill="#1172BA" points="346.960772 0 450.636656 0 450.636656 25 346.960772 25"></polygon>
            <polygon id="Fill-16" fill="#FFFFFF" points="450.047588 0 462.418006 0 462.418006 25 450.047588 25"></polygon>
            <polygon id="Fill-17" fill="#FFFF00" points="462.418006 0 566.093891 0 566.093891 25 462.418006 25"></polygon>
            <polygon id="Fill-18" fill="#FFFFFF" points="566.093891 0 579.642444 0 579.642444 25 566.093891 25"></polygon>
            <polygon id="Fill-19" fill="#00B050" points="579.642444 0 683.318328 0 683.318328 25 579.642444 25"></polygon>
            <polygon id="Fill-20" fill="#FFFFFF" points="682.72926 0 695.099678 0 695.099678 25 682.72926 25"></polygon>
            <polygon id="Fill-21" fill="#000000" points="695.099678 0 798.775563 0 798.775563 25 695.099678 25"></polygon>
            <polygon id="Fill-22" fill="#FFFFFF" points="799.953698 0 812.324116 0 812.324116 25 799.953698 25"></polygon>
            <polygon id="Fill-23" fill="#EA098C" points="812.324116 0 916 0 916 25 812.324116 25"></polygon>
        </g>
    </g>
</svg>
